<svg xmlns="http://www.w3.org/2000/svg" xmlns:xlink="http://www.w3.org/1999/xlink" width="247.824951171875" height="75.70000457763672" style="width:247.824951171875px;height:75.70000457763672px;font-family:Asana-Math, Asana;background:#FFF;"><g><g><g><g transform="matrix(1,0,0,1,2,44.1500244140625)"><path transform="matrix(0.017,0,0,-0.017,0,0)" d="M45 284C45 90 152 -18 343 -18C439 -18 510 5 600 67C600 67 610 103 610 103C610 103 600 110 600 110C506 53 454 35 376 35C219 35 133 131 133 309C133 447 190 653 418 653C489 653 541 639 597 603L597 519L624 519C629 576 637 619 651 665C575 694 518 706 456 706C276 706 45 578 45 284Z" stroke="rgb(0,0,0)" stroke-opacity="1" stroke-width="8" fill="rgb(0,0,0)" fill-opacity="1"></path></g></g><g><g><g><g><g transform="matrix(1,0,0,1,14.1875,47.16251220703125)"><path transform="matrix(0.0119,0,0,-0.0119,0,0)" d="M176 -11C232 -11 347 62 390 125C431 186 465 296 465 371C465 438 442 482 406 482C364 482 311 456 259 409C218 374 198 348 162 289L186 408C189 425 191 440 191 452C191 471 183 482 169 482C148 482 110 461 36 408L8 388L15 368L47 389C75 407 86 412 95 412C105 412 112 403 112 389C112 381 110 361 108 351L50 8C40 -52 21 -143 1 -233L-7 -270L0 -276C21 -269 41 -264 73 -259L115 3C136 -4 158 -11 176 -11ZM143 165C165 293 272 424 355 424C381 424 393 402 393 356C393 275 353 156 300 80C280 51 248 36 207 36C176 36 151 43 125 59Z" stroke="rgb(0,0,0)" stroke-opacity="1" stroke-width="8" fill="rgb(0,0,0)" fill-opacity="1"></path></g></g></g></g></g><g><g transform="matrix(1,0,0,1,21.137451171875,44.1500244140625)"><path transform="matrix(0.017,0,0,-0.017,0,0)" d="M146 266C146 526 243 632 301 700L282 726C225 675 60 542 60 266C60 159 85 58 133 -32C168 -99 200 -138 282 -215L301 -194C255 -137 146 -15 146 266Z" stroke="rgb(0,0,0)" stroke-opacity="1" stroke-width="8" fill="rgb(0,0,0)" fill-opacity="1"></path></g></g><g><g><g><g><g transform="matrix(1,0,0,1,39.137451171875,31.75)"><path transform="matrix(0.017,0,0,-0.017,0,0)" d="M355 664L358 692L244 689C228 689 210 689 167 690L103 692L100 664L147 662C171 661 182 653 182 635C182 630 182 627 181 622L86 -21C71 -124 41 -174 -6 -174C-18 -174 -27 -173 -35 -170L-32 -196C-21 -203 -9 -206 3 -206C38 -206 143 -178 177 54L262 613C268 651 275 658 313 661Z" stroke="rgb(0,0,0)" stroke-opacity="1" stroke-width="8" fill="rgb(0,0,0)" fill-opacity="1"></path></g></g></g></g><g><g><g><g transform="matrix(1,0,0,1,28.48748779296875,57.550018310546875)"><path transform="matrix(0.017,0,0,-0.017,0,0)" d="M275 482C208 482 55 419 55 259C55 182 100 136 177 136C185 136 196 136 207 137L166 99C150 84 139 66 139 52C139 42 146 31 160 19C91 -4 -37 -48 -37 -159C-37 -230 33 -276 142 -276C271 -276 384 -204 384 -121C384 -85 363 -49 320 -14L260 35C226 62 213 81 213 100C213 114 228 128 240 146C338 170 409 253 409 342C409 357 406 376 405 380C422 378 430 378 439 378C456 378 466 379 489 382L498 427L495 433C467 426 447 424 393 424C393 425 369 482 275 482ZM176 1L253 -58C299 -94 318 -121 318 -154C318 -206 249 -248 166 -248C84 -248 27 -206 27 -145C27 -43 137 -11 176 1ZM250 448C308 448 337 412 337 341C337 238 289 168 219 168C158 168 126 209 126 288C126 383 177 448 250 448ZM698 689C616 689 549 622 549 539C549 456 616 389 699 389C780 389 849 457 849 537C849 621 782 689 698 689ZM698 649C759 649 809 599 809 537C809 479 759 429 699 429C638 429 589 478 589 539C589 600 638 649 698 649ZM944 284C944 90 1051 -18 1242 -18C1338 -18 1409 5 1499 67C1499 67 1509 103 1509 103C1509 103 1499 110 1499 110C1405 53 1353 35 1275 35C1118 35 1032 131 1032 309C1032 447 1089 653 1317 653C1388 653 1440 639 1496 603L1496 519L1523 519C1528 576 1536 619 1550 665C1474 694 1417 706 1355 706C1175 706 944 578 944 284Z" stroke="rgb(0,0,0)" stroke-opacity="1" stroke-width="8" fill="rgb(0,0,0)" fill-opacity="1"></path></g></g></g></g><line style="fill:none;stroke-width:0.8px;stroke:rgb(0, 0, 0);" x1="28.48748779296875" y1="39.70002442598343" x2="55.44998741149902" y2="39.70002442598343"></line></g><g><g transform="matrix(1,0,0,1,57.14996337890625,44.1500244140625)"><path transform="matrix(0.017,0,0,-0.017,0,0)" d="M51 726L32 700C87 636 187 526 187 266C187 -10 83 -131 32 -194L51 -215C104 -165 273 -23 273 265C273 542 108 675 51 726Z" stroke="rgb(0,0,0)" stroke-opacity="1" stroke-width="8" fill="rgb(0,0,0)" fill-opacity="1"></path></g></g><g><g transform="matrix(1,0,0,1,67.89996337890625,44.1500244140625)"><path transform="matrix(0.017,0,0,-0.017,0,0)" d="M604 347L604 406L65 406L65 347ZM604 134L604 193L65 193L65 134Z" stroke="rgb(0,0,0)" stroke-opacity="1" stroke-width="8" fill="rgb(0,0,0)" fill-opacity="1"></path></g></g><g><g transform="matrix(1,0,0,1,87.762451171875,44.1500244140625)"><path transform="matrix(0.017,0,0,-0.017,0,0)" d="M555 243L555 299L51 299L51 243Z" stroke="rgb(0,0,0)" stroke-opacity="1" stroke-width="8" fill="rgb(0,0,0)" fill-opacity="1"></path></g></g><g><g><g><g><g><g><g><g transform="matrix(1,0,0,1,104.42498779296875,15.5)"><path transform="matrix(0.01275,0,0,-0.01275,0,0)" d="M483 722L471 733C419 707 383 698 311 691L307 670L355 670C379 670 389 663 389 646C389 638 388 629 387 622L359 468C329 477 302 482 277 482C208 482 114 410 68 323C37 265 17 170 17 86C17 21 32 -11 61 -11C88 -11 125 6 159 33C213 77 246 116 313 217L290 126C279 82 274 50 274 24C274 3 283 -9 300 -9C317 -9 341 3 375 28L456 88L446 107L402 76C388 66 372 59 363 59C355 59 349 68 349 82C349 90 350 99 357 128ZM114 59C98 59 89 73 89 98C89 224 135 380 184 418C197 428 216 433 243 433C287 433 316 427 349 410L337 351C300 171 159 59 114 59ZM650 -172C650 -95 674 -59 727 -59C756 -59 784 -67 823 -88L968 -164C1028 -195 1046 -201 1086 -201C1161 -201 1197 -158 1207 -61L1182 -61C1176 -115 1154 -140 1114 -140C1097 -140 1078 -135 1052 -125L816 -29C791 -19 773 -15 750 -15C676 -15 625 -66 625 -142C625 -144 625 -151 626 -159ZM1247 425C1247 603 1143 706 963 706C726 706 552 523 552 272C552 83 646 -18 822 -18C1094 -18 1247 207 1247 425ZM1159 409C1159 221 1070 24 859 24C715 24 640 110 640 277C640 425 698 664 932 664C1048 664 1159 610 1159 409Z" stroke="rgb(0,0,0)" stroke-opacity="1" stroke-width="8" fill="rgb(0,0,0)" fill-opacity="1"></path></g></g></g></g><g><g><g><g transform="matrix(1,0,0,1,107.25,33.350006103515625)"><path transform="matrix(0.01275,0,0,-0.01275,0,0)" d="M483 722L471 733C419 707 383 698 311 691L307 670L355 670C379 670 389 663 389 646C389 638 388 629 387 622L359 468C329 477 302 482 277 482C208 482 114 410 68 323C37 265 17 170 17 86C17 21 32 -11 61 -11C88 -11 125 6 159 33C213 77 246 116 313 217L290 126C279 82 274 50 274 24C274 3 283 -9 300 -9C317 -9 341 3 375 28L456 88L446 107L402 76C388 66 372 59 363 59C355 59 349 68 349 82C349 90 350 99 357 128ZM114 59C98 59 89 73 89 98C89 224 135 380 184 418C197 428 216 433 243 433C287 433 316 427 349 410L337 351C300 171 159 59 114 59ZM624 390L568 107C567 99 555 61 555 31C555 6 566 -9 585 -9C620 -9 655 11 733 74L764 99L754 117L709 86C680 66 660 56 649 56C640 56 635 64 635 76C635 102 649 183 678 328L691 390L798 390L809 440C771 436 737 434 699 434C715 528 726 577 744 631L733 646C713 634 686 622 655 610L630 440C586 419 560 408 542 403L540 390Z" stroke="rgb(0,0,0)" stroke-opacity="1" stroke-width="8" fill="rgb(0,0,0)" fill-opacity="1"></path></g></g></g></g><line style="fill:none;stroke-width:0.8px;stroke:rgb(0, 0, 0);" x1="104.42498779296875" y1="21.13752442598343" x2="120.6874885559082" y2="21.13752442598343"></line></g><g><g transform="matrix(1,0,0,1,121.96246337890625,25.800018310546875)"><path transform="matrix(0.017,0,0,-0.017,0,0)" d="M146 266C146 526 243 632 301 700L282 726C225 675 60 542 60 266C60 159 85 58 133 -32C168 -99 200 -138 282 -215L301 -194C255 -137 146 -15 146 266Z" stroke="rgb(0,0,0)" stroke-opacity="1" stroke-width="8" fill="rgb(0,0,0)" fill-opacity="1"></path></g></g><g><g><g><g><g transform="matrix(1,0,0,1,132.42498779296875,15.5)"><path transform="matrix(0.01275,0,0,-0.01275,0,0)" d="M355 664L358 692L244 689C228 689 210 689 167 690L103 692L100 664L147 662C171 661 182 653 182 635C182 630 182 627 181 622L86 -21C71 -124 41 -174 -6 -174C-18 -174 -27 -173 -35 -170L-32 -196C-21 -203 -9 -206 3 -206C38 -206 143 -178 177 54L262 613C268 651 275 658 313 661Z" stroke="rgb(0,0,0)" stroke-opacity="1" stroke-width="8" fill="rgb(0,0,0)" fill-opacity="1"></path></g></g></g></g><g><g><g><g transform="matrix(1,0,0,1,128.887451171875,33.350006103515625)"><path transform="matrix(0.01275,0,0,-0.01275,0,0)" d="M275 482C208 482 55 419 55 259C55 182 100 136 177 136C185 136 196 136 207 137L166 99C150 84 139 66 139 52C139 42 146 31 160 19C91 -4 -37 -48 -37 -159C-37 -230 33 -276 142 -276C271 -276 384 -204 384 -121C384 -85 363 -49 320 -14L260 35C226 62 213 81 213 100C213 114 228 128 240 146C338 170 409 253 409 342C409 357 406 376 405 380C422 378 430 378 439 378C456 378 466 379 489 382L498 427L495 433C467 426 447 424 393 424C393 425 369 482 275 482ZM176 1L253 -58C299 -94 318 -121 318 -154C318 -206 249 -248 166 -248C84 -248 27 -206 27 -145C27 -43 137 -11 176 1ZM250 448C308 448 337 412 337 341C337 238 289 168 219 168C158 168 126 209 126 288C126 383 177 448 250 448ZM530 148C525 97 519 62 508 16C546 -2 580 -11 615 -11C664 -11 710 7 761 47C812 87 833 124 833 174C833 228 801 257 727 271L684 279C624 290 605 307 605 348C605 401 650 442 707 442C748 442 786 424 802 397L802 342L825 342C829 377 833 404 844 455C805 474 777 482 744 482C692 482 631 452 583 404C557 377 546 352 546 316C546 260 577 228 643 215L706 203C750 195 766 177 766 138C766 73 720 29 649 29C614 29 583 40 555 64L555 148Z" stroke="rgb(0,0,0)" stroke-opacity="1" stroke-width="8" fill="rgb(0,0,0)" fill-opacity="1"></path></g></g></g></g><line style="fill:none;stroke-width:0.8px;stroke:rgb(0, 0, 0);" x1="128.887451171875" y1="21.13752442598343" x2="140.199951171875" y2="21.13752442598343"></line></g><g><g transform="matrix(1,0,0,1,141.4749755859375,25.800018310546875)"><path transform="matrix(0.017,0,0,-0.017,0,0)" d="M51 726L32 700C87 636 187 526 187 266C187 -10 83 -131 32 -194L51 -215C104 -165 273 -23 273 265C273 542 108 675 51 726Z" stroke="rgb(0,0,0)" stroke-opacity="1" stroke-width="8" fill="rgb(0,0,0)" fill-opacity="1"></path></g></g></g></g><g><g><g><g transform="matrix(1,0,0,1,106.92498779296875,64.35000610351562)"><path transform="matrix(0.017,0,0,-0.017,0,0)" d="M459 205C459 301 389 358 298 360L298 369C391 400 475 479 476 581C477 644 445 680 381 680C154 680 114 463 89 289C62 101 36 -87 -8 -273L-8 -283C18 -274 43 -265 70 -259C76 -162 90 -66 104 29C239 -84 459 37 459 205ZM216 12C159 12 123 45 124 103C126 205 190 570 278 629C337 668 411 631 406 558C398 447 310 371 204 371C201 338 204 378 200 329C294 362 383 309 378 208C374 115 322 12 216 12Z" stroke="rgb(0,0,0)" stroke-opacity="1" stroke-width="8" fill="rgb(0,0,0)" fill-opacity="1"></path></g></g><g><g transform="matrix(1,0,0,1,115.637451171875,64.35000610351562)"><path transform="matrix(0.017,0,0,-0.017,0,0)" d="M146 266C146 526 243 632 301 700L282 726C225 675 60 542 60 266C60 159 85 58 133 -32C168 -99 200 -138 282 -215L301 -194C255 -137 146 -15 146 266Z" stroke="rgb(0,0,0)" stroke-opacity="1" stroke-width="8" fill="rgb(0,0,0)" fill-opacity="1"></path></g></g><g><g><g><g><g transform="matrix(1,0,0,1,122.5625,54.050018310546875)"><path transform="matrix(0.01275,0,0,-0.01275,0,0)" d="M199 689C117 689 50 622 50 539C50 456 117 389 200 389C281 389 350 457 350 537C350 621 283 689 199 689ZM199 649C260 649 310 599 310 537C310 479 260 429 200 429C139 429 90 478 90 539C90 600 139 649 199 649ZM445 284C445 90 552 -18 743 -18C839 -18 910 5 1000 67C1000 67 1010 103 1010 103C1010 103 1000 110 1000 110C906 53 854 35 776 35C619 35 533 131 533 309C533 447 590 653 818 653C889 653 941 639 997 603L997 519L1024 519C1029 576 1037 619 1051 665C975 694 918 706 856 706C676 706 445 578 445 284Z" stroke="rgb(0,0,0)" stroke-opacity="1" stroke-width="8" fill="rgb(0,0,0)" fill-opacity="1"></path></g></g></g></g><g><g><g><g transform="matrix(1,0,0,1,127.012451171875,71.9000244140625)"><path transform="matrix(0.01275,0,0,-0.01275,0,0)" d="M31 148C26 97 20 62 9 16C47 -2 81 -11 116 -11C165 -11 211 7 262 47C313 87 334 124 334 174C334 228 302 257 228 271L185 279C125 290 106 307 106 348C106 401 151 442 208 442C249 442 287 424 303 397L303 342L326 342C330 377 334 404 345 455C306 474 278 482 245 482C193 482 132 452 84 404C58 377 47 352 47 316C47 260 78 228 144 215L207 203C251 195 267 177 267 138C267 73 221 29 150 29C115 29 84 40 56 64L56 148Z" stroke="rgb(0,0,0)" stroke-opacity="1" stroke-width="8" fill="rgb(0,0,0)" fill-opacity="1"></path></g></g></g></g><line style="fill:none;stroke-width:0.8px;stroke:rgb(0, 0, 0);" x1="122.5625" y1="59.68751221895218" x2="136.42500019073486" y2="59.68751221895218"></line></g><g><g transform="matrix(1,0,0,1,137.699951171875,64.35000610351562)"><path transform="matrix(0.017,0,0,-0.017,0,0)" d="M51 726L32 700C87 636 187 526 187 266C187 -10 83 -131 32 -194L51 -215C104 -165 273 -23 273 265C273 542 108 675 51 726Z" stroke="rgb(0,0,0)" stroke-opacity="1" stroke-width="8" fill="rgb(0,0,0)" fill-opacity="1"></path></g></g></g></g><line style="fill:none;stroke-width:0.8px;stroke:rgb(0, 0, 0);" x1="103.14996337890625" y1="39.70002442598343" x2="147.1249656677246" y2="39.70002442598343"></line></g><g><g transform="matrix(1,0,0,1,148.824951171875,44.1500244140625)"><path transform="matrix(0.017,0,0,-0.017,0,0)" d="" stroke="rgb(0,0,0)" stroke-opacity="1" stroke-width="8" fill="rgb(0,0,0)" fill-opacity="1"></path></g></g><g><g><g><g><text x="165.762451171875" y="30.350006103515625" style="white-space:pre;stroke:none;fill:rgb(0,0,0);fill-opacity:1;font-size:15px;font-family:Arial, Helvetica, sans-serif;font-weight:400;font-style:normal;dominant-baseline:text-before-edge;text-decoration:none solid rgb(0, 0, 0);">(equation 2)</text></g></g></g></g></g></g></svg>